# Blender 5.1.2
# www.blender.org
mtllib warpeue.mtl
o warpeue
v -0.319544 -0.451994 -0.319621
v -0.451840 0.000004 -0.452010
v -0.451840 -0.451994 -0.000031
v -0.590446 -0.244616 -0.000031
v -0.417645 -0.244616 -0.417631
v -0.639040 0.000004 -0.000031
v -0.417645 0.244615 -0.417632
v -0.590446 0.244615 -0.000031
v -0.319544 0.451993 -0.319622
v -0.451840 0.451993 -0.000031
v -0.319544 -0.451994 0.319560
v -0.451840 -0.451994 -0.000031
v -0.590446 -0.244616 -0.000031
v -0.417645 -0.244616 0.417570
v -0.639040 0.000004 -0.000031
v -0.451840 0.000004 0.451948
v -0.417645 0.244615 0.417570
v -0.590446 0.244615 -0.000031
v -0.319544 0.451993 0.319560
v -0.451840 0.451993 -0.000031
v 0.319455 0.451993 -0.319622
v -0.319544 0.451993 -0.319622
v -0.451840 0.451993 -0.000031
v -0.172842 0.590557 -0.173011
v -0.244844 0.590557 -0.000031
v -0.000041 0.639220 -0.000031
v -0.000041 0.451993 -0.452010
v -0.000041 0.590557 -0.244650
v -0.000041 0.639220 -0.000031
v -0.000041 0.590557 -0.244650
v 0.172760 0.590557 -0.173011
v -0.000041 0.639220 -0.000031
v -0.000041 0.639220 -0.000031
v 0.244755 0.590557 -0.000031
v 0.451758 0.451993 -0.000031
v 0.172760 0.590557 0.172949
v -0.000041 0.639220 -0.000031
v 0.319455 0.451993 0.319560
v 0.026958 0.451993 0.440789
v -0.000041 0.590557 0.244588
v -0.000041 0.475564 0.416668
v -0.027040 0.451993 0.440789
v -0.172842 0.590557 0.172949
v -0.319544 0.451993 0.319560
v -0.451840 0.451993 -0.000031
v -0.244844 0.590557 -0.000031
v -0.000041 0.639220 -0.000031
v -0.000041 0.590557 0.244588
v -0.000041 0.639220 -0.000031
v -0.000041 0.639220 -0.000031
v -0.000041 -0.244616 -0.590611
v 0.319455 -0.451994 -0.319621
v -0.000041 -0.451994 -0.452010
v 0.417556 -0.244616 -0.417631
v -0.000041 0.000004 -0.639210
v 0.451758 0.000004 -0.452010
v -0.417645 -0.244616 -0.417631
v -0.319544 -0.451994 -0.319621
v -0.451840 0.000004 -0.452010
v -0.417645 0.244615 -0.417632
v 0.417556 0.244615 -0.417632
v -0.000041 0.244615 -0.590611
v 0.319455 0.451993 -0.319622
v -0.417645 0.244615 -0.417632
v -0.319544 0.451993 -0.319622
v -0.000041 0.451993 -0.452010
v 0.319455 -0.451994 -0.319621
v 0.451758 0.000004 -0.452010
v 0.319455 0.451993 -0.319622
v 0.451758 0.451993 -0.000031
v 0.590357 0.244615 -0.000031
v 0.417556 0.244615 -0.417632
v 0.319455 0.451993 0.319560
v 0.638958 0.000004 -0.000031
v 0.417556 0.244615 0.417570
v 0.451758 0.000004 0.451948
v 0.417556 -0.244616 0.417570
v 0.319455 -0.451994 0.319560
v 0.590357 -0.244616 -0.000031
v 0.417556 -0.244616 -0.417631
v 0.451758 -0.451994 -0.000031
v 0.319455 -0.451994 -0.319621
v -0.000041 -0.451994 -0.452010
v -0.319544 -0.451994 -0.319621
v -0.172842 -0.590558 -0.173011
v -0.000041 -0.590558 -0.244650
v 0.172760 -0.590558 -0.173011
v -0.451840 -0.451994 -0.000031
v -0.244844 -0.590558 -0.000031
v -0.000041 -0.639221 -0.000031
v -0.000041 -0.639221 -0.000031
v -0.000041 -0.590558 -0.244650
v -0.000041 -0.639221 -0.000031
v 0.319455 -0.451994 0.319560
v 0.026958 -0.451994 0.440789
v 0.451758 -0.451994 -0.000031
v 0.244755 -0.590558 -0.000031
v -0.000041 -0.639221 -0.000031
v 0.172760 -0.590558 0.172949
v -0.000041 -0.639221 -0.000031
v -0.000041 -0.590558 0.244588
v -0.000041 -0.475565 0.416669
v -0.000041 -0.639221 -0.000031
v -0.000041 -0.590558 0.244588
v -0.027040 -0.451994 0.440789
v -0.172842 -0.590558 0.172949
v -0.000041 -0.639221 -0.000031
v -0.319544 -0.451994 0.319560
v -0.000041 -0.639221 -0.000031
v -0.244844 -0.590558 -0.000031
v -0.451840 -0.451994 -0.000031
v 0.319455 0.451993 0.319560
v 0.026958 0.451993 0.440789
v 0.160160 0.336271 0.462929
v 0.178157 0.244615 0.516749
v 0.417556 0.244615 0.417570
v 0.226758 0.000004 0.545370
v -0.027040 0.451993 0.440789
v 0.451758 0.000004 0.451948
v 0.417556 -0.244616 0.417570
v 0.178157 -0.244616 0.516749
v 0.417556 -0.244616 0.417570
v 0.319455 -0.451994 0.319560
v 0.160160 -0.336272 0.462930
v 0.026958 -0.451994 0.440789
v -0.027040 -0.451994 0.440789
v -0.319544 -0.451994 0.319560
v -0.160242 -0.336272 0.462930
v -0.178246 -0.244616 0.516749
v -0.417645 -0.244616 0.417570
v -0.226840 0.000004 0.545370
v -0.451840 0.000004 0.451948
v -0.417645 0.244615 0.417570
v -0.178246 0.244615 0.516749
v -0.319544 0.451993 0.319560
v -0.160242 0.336271 0.462929
v -0.000041 0.451993 0.452309
v -0.000041 0.475564 0.417118
v -0.027040 0.451993 0.441149
v 0.026958 0.451993 0.441149
v -0.027040 -0.451994 0.441149
v 0.026958 -0.451994 0.441149
v -0.000041 -0.451994 0.452309
v -0.000041 -0.475565 0.417118
v -0.000041 0.451993 0.452309
v -0.027040 0.451993 0.441149
v 0.026958 0.451993 0.441149
v -0.000041 0.244615 0.590908
v -0.160242 0.336280 0.463288
v 0.160160 0.336280 0.463288
v -0.178246 0.244615 0.517109
v 0.178157 0.244615 0.517109
v -0.000041 0.000004 0.639598
v -0.226840 0.000004 0.545729
v 0.226758 0.000004 0.545729
v -0.178246 -0.244616 0.517109
v 0.178157 -0.244616 0.517109
v -0.000041 -0.244616 0.590908
v -0.160242 -0.336272 0.463288
v 0.160160 -0.336272 0.463288
v -0.027040 -0.451994 0.441149
v 0.026958 -0.451994 0.441149
v -0.000041 -0.451994 0.452309
vn -0.9290 -0.3700 -0.0000
vn -0.5173 -0.6818 -0.5172
vn -0.7303 -0.6831 -0.0000
vn -0.6575 -0.3679 -0.6575
vn -1.0000 -0.0000 -0.0000
vn -0.7071 -0.0000 -0.7071
vn -0.6576 0.3679 -0.6575
vn -0.9290 0.3701 -0.0000
vn -0.5173 0.6818 -0.5172
vn -0.7303 0.6832 -0.0000
vn -0.5194 -0.6846 0.5114
vn -0.9290 -0.3701 -0.0000
vn -0.7303 -0.6832 -0.0000
vn -0.6575 -0.3679 0.6575
vn -0.7071 -0.0000 0.7071
vn -0.6576 0.3679 0.6575
vn -0.9290 0.3700 -0.0000
vn -0.5194 0.6846 0.5115
vn -0.7303 0.6831 -0.0000
vn -0.5172 0.6819 -0.5172
vn -0.2994 0.9059 -0.2994
vn -0.4250 0.9052 -0.0000
vn -0.0000 1.0000 -0.0000
vn -0.0000 0.6832 -0.7302
vn -0.0000 0.9052 -0.4251
vn -0.2993 0.9060 -0.2993
vn -0.0000 0.9052 -0.4250
vn 0.2994 0.9059 -0.2994
vn 0.5173 0.6818 -0.5172
vn 0.2993 0.9060 -0.2994
vn 0.4250 0.9052 -0.0000
vn 0.7302 0.6832 -0.0000
vn 0.2994 0.9059 0.2994
vn 0.5193 0.6846 0.5114
vn 0.2598 0.7321 0.6297
vn -0.0000 0.9051 0.4251
vn -0.0000 0.8309 0.5565
vn -0.2598 0.7321 0.6297
vn -0.2994 0.9059 0.2994
vn -0.5193 0.6846 0.5114
vn -0.0000 0.9052 0.4250
vn -0.0000 1.0000 0.0001
vn -0.2993 0.9060 0.2993
vn 0.2993 0.9060 0.2994
vn -0.0000 -0.3700 -0.9290
vn 0.5173 -0.6818 -0.5173
vn -0.0000 -0.6831 -0.7303
vn 0.6575 -0.3679 -0.6575
vn -0.0000 -0.0000 -1.0000
vn 0.7071 -0.0000 -0.7071
vn -0.5172 -0.6818 -0.5173
vn -0.6575 0.3679 -0.6575
vn 0.6575 0.3679 -0.6575
vn -0.0000 0.3700 -0.9290
vn 0.5172 0.6818 -0.5173
vn -0.5173 0.6818 -0.5173
vn -0.0000 0.6831 -0.7303
vn 0.9290 0.3700 -0.0000
vn 0.7303 0.6831 -0.0000
vn 0.5194 0.6846 0.5115
vn 1.0000 -0.0000 -0.0000
vn 0.6575 0.3679 0.6575
vn 0.7071 -0.0000 0.7071
vn 0.6575 -0.3679 0.6575
vn 0.9290 -0.3700 -0.0000
vn 0.5194 -0.6846 0.5115
vn 0.6576 -0.3679 -0.6575
vn 0.5173 -0.6818 -0.5172
vn 0.7303 -0.6831 -0.0000
vn -0.2994 -0.9059 -0.2994
vn -0.5172 -0.6819 -0.5172
vn -0.0000 -0.6832 -0.7302
vn -0.0000 -0.9052 -0.4251
vn 0.2994 -0.9059 -0.2994
vn 0.5172 -0.6819 -0.5172
vn -0.4250 -0.9052 -0.0000
vn -0.0000 -1.0000 -0.0000
vn -0.2993 -0.9060 -0.2994
vn -0.0000 -0.9052 -0.4250
vn 0.2993 -0.9060 -0.2994
vn 0.7303 -0.6832 -0.0000
vn 0.4250 -0.9052 -0.0000
vn 0.2994 -0.9059 0.2994
vn 0.5193 -0.6846 0.5114
vn 0.2598 -0.7321 0.6297
vn -0.0000 -0.9052 0.4251
vn -0.0000 -0.8309 0.5564
vn 0.2993 -0.9060 0.2994
vn -0.0000 -0.9052 0.4250
vn -0.2598 -0.7321 0.6297
vn -0.2994 -0.9059 0.2994
vn -0.2993 -0.9060 0.2993
vn -0.5193 -0.6846 0.5114
vn 0.3224 0.5269 0.7864
vn 0.5193 0.6846 0.5115
vn 0.2598 0.7321 0.6298
vn 0.3555 0.3634 0.8611
vn 0.3863 -0.0000 0.9224
vn 0.3555 -0.3634 0.8611
vn 0.5193 -0.6846 0.5115
vn 0.3224 -0.5269 0.7864
vn 0.2598 -0.7321 0.6298
vn -0.2598 -0.7321 0.6298
vn -0.3224 -0.5269 0.7864
vn -0.5193 -0.6846 0.5115
vn -0.3555 -0.3634 0.8611
vn -0.3863 -0.0000 0.9224
vn -0.6575 0.3679 0.6575
vn -0.3555 0.3634 0.8611
vn -0.5193 0.6846 0.5115
vn -0.3224 0.5269 0.7864
vn -0.2598 0.7321 0.6298
vn -0.0000 0.6832 0.7303
vn -0.0000 0.8308 0.5566
vn -0.2977 0.6347 0.7131
vn 0.2978 0.6347 0.7130
vn -0.2978 -0.6347 0.7130
vn -0.0000 -0.8308 0.5565
vn -0.0000 -0.6832 0.7303
vn 0.2978 -0.6347 0.7131
vn -0.2978 0.6347 0.7131
vn -0.0000 0.3700 0.9290
vn -0.0000 0.6831 0.7303
vn 0.2978 0.6347 0.7131
vn -0.3225 0.5269 0.7864
vn -0.3541 0.3541 0.8656
vn 0.3541 0.3541 0.8656
vn -0.0000 -0.0000 1.0000
vn -0.3541 -0.3541 0.8656
vn 0.3541 -0.3541 0.8656
vn -0.0000 -0.3700 0.9290
vn 0.3225 -0.5269 0.7864
vn -0.2978 -0.6347 0.7131
vn -0.0000 -0.6831 0.7303
vt -0.508238 -0.477070
vt -0.552628 -0.505872
vt -0.508238 -0.505872
vt -0.566237 -0.477070
vt -0.508238 -0.443095
vt -0.571015 -0.443095
vt -0.566237 -0.409120
vt -0.508238 -0.409120
vt -0.552628 -0.380318
vt -0.508238 -0.380318
vt -0.463848 -0.505872
vt -0.450240 -0.477070
vt -0.445461 -0.443095
vt -0.450240 -0.409120
vt -0.463848 -0.380318
vt -0.559144 -0.405220
vt -0.577531 -0.449610
vt -0.538777 -0.425586
vt -0.548728 -0.449610
vt -0.514754 -0.449610
vt -0.514754 -0.386833
vt -0.514754 -0.415635
vt -0.490730 -0.425586
vt -0.470363 -0.405220
vt -0.480779 -0.449610
vt -0.451976 -0.449610
vt -0.490730 -0.473634
vt -0.470363 -0.494000
vt -0.510990 -0.510828
vt -0.514754 -0.483585
vt -0.514754 -0.507488
vt -0.518517 -0.510828
vt -0.538777 -0.473634
vt -0.559144 -0.494000
vt -0.514754 -0.477070
vt -0.559144 -0.505872
vt -0.514754 -0.505872
vt -0.572752 -0.477070
vt -0.514754 -0.443095
vt -0.577531 -0.443095
vt -0.456755 -0.477070
vt -0.470363 -0.505872
vt -0.451976 -0.443095
vt -0.456755 -0.409120
vt -0.572752 -0.409120
vt -0.514754 -0.409120
vt -0.559144 -0.380318
vt -0.470363 -0.380318
vt -0.514754 -0.380318
vt -0.521269 -0.409120
vt -0.476879 -0.380318
vt -0.521269 -0.380318
vt -0.463270 -0.409120
vt -0.565659 -0.380318
vt -0.521269 -0.443095
vt -0.458492 -0.443095
vt -0.579267 -0.409120
vt -0.584046 -0.443095
vt -0.579267 -0.477070
vt -0.521269 -0.477070
vt -0.565659 -0.505872
vt -0.463270 -0.477070
vt -0.476879 -0.505872
vt -0.521269 -0.505872
vt -0.492509 -0.396390
vt -0.510990 -0.380318
vt -0.489998 -0.409120
vt -0.483296 -0.443095
vt -0.489998 -0.477070
vt -0.492509 -0.489800
vt -0.510990 -0.505872
vt -0.518517 -0.505872
vt -0.536998 -0.489800
vt -0.539509 -0.477070
vt -0.546211 -0.443095
vt -0.539509 -0.409120
vt -0.536998 -0.396390
vt -0.518517 -0.380318
vt -0.081391 1.603040
vt -0.081391 1.607940
vt -0.085154 1.604600
vt -0.077627 1.604600
vt -0.081391 1.607930
vt -0.085154 1.655260
vt -0.081391 1.626460
vt -0.081391 1.655260
vt -0.077627 1.655260
vt -0.103634 1.639190
vt -0.059147 1.639190
vt -0.106146 1.626460
vt -0.056635 1.626460
vt -0.081391 1.592480
vt -0.112848 1.592480
vt -0.049933 1.592480
vt -0.106146 1.558510
vt -0.056635 1.558510
vt -0.081391 1.558510
vt -0.103634 1.545780
vt -0.059147 1.545780
vt -0.085154 1.529710
vt -0.077627 1.529710
vt -0.081391 1.529710
s 1
usemtl Meshpart1Mtl.001
f 4/1/1 1/2/2 3/3/3
f 1/2/2 4/1/1 5/4/4
f 6/5/5 5/4/4 4/1/1
f 5/4/4 6/5/5 2/6/6
f 6/5/5 7/7/7 2/6/6
f 7/7/7 6/5/5 8/8/8
f 7/7/7 8/8/8 9/9/9
f 9/9/9 8/8/8 10/10/10
f 11/11/11 13/1/12 12/3/13
f 14/12/14 13/1/12 11/11/11
f 14/12/14 15/5/5 13/1/12
f 16/13/15 15/5/5 14/12/14
f 17/14/16 15/5/5 16/13/15
f 15/5/5 17/14/16 18/8/17
f 19/15/18 18/8/17 17/14/16
f 18/8/17 19/15/18 20/10/19
f 22/16/20 23/17/10 24/18/21
f 24/18/21 23/17/10 25/19/22
f 25/19/22 26/20/23 24/18/21
f 24/18/21 27/21/24 22/16/20
f 27/21/24 24/18/21 28/22/25
f 24/18/26 29/20/23 30/22/27
f 31/23/28 27/21/24 28/22/25
f 27/21/24 31/23/28 21/24/29
f 30/22/27 32/20/23 31/23/30
f 31/23/28 33/20/23 34/25/31
f 31/23/28 35/26/32 21/24/29
f 35/26/32 31/23/28 34/25/31
f 36/27/33 35/26/32 34/25/31
f 34/25/31 37/20/23 36/27/33
f 35/26/32 36/27/33 38/28/34
f 36/27/33 39/29/35 38/28/34
f 40/30/36 39/29/35 36/27/33
f 39/29/35 40/30/36 41/31/37
f 40/30/36 42/32/38 41/31/37
f 43/33/39 42/32/38 40/30/36
f 44/34/40 42/32/38 43/33/39
f 43/33/39 45/17/10 44/34/40
f 45/17/10 43/33/39 46/19/22
f 43/33/39 47/20/23 46/19/22
f 48/30/41 49/20/42 43/33/43
f 36/27/44 50/20/23 48/30/41
f 51/35/45 52/36/46 53/37/47
f 52/36/46 51/35/45 54/38/48
f 55/39/49 54/38/48 51/35/45
f 54/38/48 55/39/49 56/40/50
f 51/35/45 57/41/4 55/39/49
f 58/42/51 57/41/4 51/35/45
f 53/37/47 58/42/51 51/35/45
f 59/43/6 55/39/49 57/41/4
f 60/44/52 55/39/49 59/43/6
f 56/40/50 55/39/49 61/45/53
f 55/39/49 60/44/52 62/46/54
f 55/39/49 62/46/54 61/45/53
f 61/45/53 62/46/54 63/47/55
f 65/48/56 62/46/54 64/44/52
f 62/46/54 65/48/56 66/49/57
f 62/46/54 66/49/57 63/47/55
f 71/50/58 69/51/29 70/52/59
f 69/51/29 71/50/58 72/53/53
f 73/54/60 71/50/58 70/52/59
f 74/55/61 72/53/53 71/50/58
f 72/53/53 74/55/61 68/56/50
f 73/54/60 75/57/62 71/50/58
f 75/57/62 74/55/61 71/50/58
f 76/58/63 74/55/61 75/57/62
f 77/59/64 74/55/61 76/58/63
f 74/55/61 77/59/64 79/60/65
f 78/61/66 79/60/65 77/59/64
f 74/55/61 79/60/65 80/62/67
f 74/55/61 80/62/67 68/56/50
f 79/60/65 67/63/68 80/62/67
f 79/60/65 81/64/69 67/63/68
f 79/60/65 78/61/66 81/64/69
f 85/23/70 84/24/71 83/21/72
f 83/21/72 86/22/73 85/23/70
f 83/21/72 87/18/74 86/22/73
f 87/18/74 83/21/72 82/16/75
f 85/23/70 88/26/13 84/24/71
f 88/26/13 85/23/70 89/25/76
f 90/20/77 89/25/76 85/23/70
f 91/20/77 85/23/78 92/22/79
f 93/20/77 92/22/79 87/18/80
f 96/17/81 87/18/74 82/16/75
f 87/18/74 96/17/81 97/19/82
f 98/20/77 87/18/74 97/19/82
f 99/33/83 96/17/81 94/34/84
f 96/17/81 99/33/83 97/19/82
f 94/34/84 95/32/85 99/33/83
f 100/20/77 97/19/82 99/33/83
f 95/32/85 101/30/86 99/33/83
f 101/30/86 95/32/85 102/31/87
f 103/20/77 99/33/88 104/30/89
f 105/29/90 101/30/86 102/31/87
f 105/29/90 106/27/91 101/30/86
f 107/20/77 104/30/89 106/27/92
f 106/27/91 105/29/90 108/28/93
f 109/20/77 106/27/91 110/25/76
f 106/27/91 111/26/13 110/25/76
f 108/28/93 111/26/13 106/27/91
f 114/65/94 112/48/95 113/66/96
f 115/67/97 112/48/95 114/65/94
f 112/48/95 115/67/97 116/44/62
f 117/68/98 116/44/62 115/67/97
f 116/44/62 117/68/98 119/43/63
f 117/68/98 120/41/64 119/43/63
f 120/41/64 117/68/98 121/69/99
f 122/41/64 121/69/99 123/42/100
f 123/42/100 121/69/99 124/70/101
f 123/42/100 124/70/101 125/71/102
f 126/72/103 128/73/104 127/36/105
f 129/74/106 127/36/105 128/73/104
f 127/36/105 129/74/106 130/38/14
f 131/75/107 130/38/14 129/74/106
f 130/38/14 131/75/107 132/40/15
f 131/75/107 133/45/108 132/40/15
f 133/45/108 131/75/107 134/76/109
f 134/76/109 135/47/110 133/45/108
f 135/47/110 134/76/109 136/77/111
f 118/78/112 135/47/110 136/77/111
usemtl Meshpart2Mtl.001
f 137/79/113 138/80/114 139/81/115
f 140/82/116 138/80/114 137/79/113
f 141/82/117 144/83/118 143/79/119
f 144/83/118 142/81/120 143/79/119
f 146/84/121 148/85/122 145/86/123
f 148/85/122 147/87/124 145/86/123
f 148/85/122 146/84/121 149/88/125
f 147/87/124 148/85/122 150/89/94
f 148/85/122 149/88/125 151/90/126
f 150/89/94 148/85/122 152/91/127
f 151/90/126 153/92/128 148/85/122
f 153/92/128 152/91/127 148/85/122
f 153/92/128 151/90/126 154/93/107
f 152/91/127 153/92/128 155/94/98
f 156/95/129 153/92/128 154/93/107
f 153/92/128 157/96/130 155/94/98
f 153/92/128 156/95/129 158/97/131
f 157/96/130 153/92/128 158/97/131
f 159/98/104 158/97/131 156/95/129
f 158/97/131 160/99/132 157/96/130
f 161/100/133 158/97/131 159/98/104
f 160/99/132 158/97/131 162/101/120
f 158/97/131 161/100/133 163/102/134
f 162/101/120 158/97/131 163/102/134
